# xmcd
#
# Track frame offsets:
#	150
#	19778
#	39155
#	51908
#	64571
#	83703
#	103881
#	121571
#	141152
#	161193
#	170276
#	187670
#	204956
#	219410
#	232604
#	245343
#	265564
#	278989
#	292302
#	303797
#
# Disc length: 4256 seconds
#
# Revision: 0
# Processed by: cddbd v1.5.2PL0 Copyright (c) Steve Scherf et al.
# Submitted via: audiograbber 1.83.01
#
DISCID=06109e14
DTITLE=Jonny Hill - 20 Jahre Teddybär - CD 1
DYEAR=2007
DGENRE=Country
TTITLE0=30 Tonnen Kerosin
TTITLE1=50.000 Kilometer
TTITLE2=500 Meilen Von Zu Haus
TTITLE3=Clementine (Oh My Darling Clem
TTITLE4=Das Konzert
TTITLE5=Dein erster Brief
TTITLE6=Deine Augen
TTITLE7=Der alte Mann
TTITLE8=Der Feigling
TTITLE9=Ein Ring Aus Feuer (Ring of Fi
TTITLE10=Eine Heimat und doch kein Zuha
TTITLE11=Express
TTITLE12=Geblendet von der Nacht
TTITLE13=Gott Sei Dank Gibts Das Radio
TTITLE14=Green Green Grass Of Homerass
TTITLE15=Hallo Teddybär
TTITLE16=Ich Bin Einer So Wie Du
TTITLE17=Ich Bin Wieder Zu Haus
TTITLE18=Ich Fahre Meine Tour (Six Day
TTITLE19=Ich Hab Dich Tief Im Herzen
EXTD=
EXTT0=
EXTT1=
EXTT2=
EXTT3=
EXTT4=
EXTT5=
EXTT6=
EXTT7=
EXTT8=
EXTT9=
EXTT10=
EXTT11=
EXTT12=
EXTT13=
EXTT14=
EXTT15=
EXTT16=
EXTT17=
EXTT18=
EXTT19=
PLAYORDER=
